<?xml version="1.0" encoding="UTF-8" standalone="no"?>
<!DOCTYPE svg PUBLIC "-//W3C//DTD SVG 1.1//EN" "http://www.w3.org/Graphics/SVG/1.1/DTD/svg11.dtd">
<svg width="100%" height="100%" viewBox="0 0 7512 1687" version="1.1" xmlns="http://www.w3.org/2000/svg" xmlns:xlink="http://www.w3.org/1999/xlink" xml:space="preserve" xmlns:serif="http://www.serif.com/" style="fill-rule:evenodd;clip-rule:evenodd;stroke-linecap:round;stroke-linejoin:round;stroke-miterlimit:1.5;">
    <g transform="matrix(1,0,0,1,-3954,0)">
        <g transform="matrix(2.02323,0,0,1,-4047.44,46.8725)">
            <rect id="White---Text" serif:id="White + Text" x="3954.78" y="-46.873" width="3712.85" height="1686.73" style="fill:none;"/>
            <g id="White---Text1" serif:id="White + Text">
                <g transform="matrix(0.494258,0,0,1,3570.69,-439.873)">
                    <g transform="matrix(1,-0,-0,1,777.096,393)">
                        <path d="M171.207,1005.94C112.086,986.971 48.684,1019.57 29.711,1078.69C10.739,1137.81 43.334,1201.21 102.455,1220.18C161.576,1239.15 224.977,1206.56 243.95,1147.44C262.923,1088.32 230.327,1024.92 171.207,1005.94Z" style="fill:rgb(35,31,32);"/>
                        <path d="M201.102,1133.69C246.526,1139.55 295.637,1138.13 341.295,1120.97C480.939,1068.48 563.508,534.184 585.698,375.898C702.534,-457.537 727.457,973.08 870.226,1282.83C954.189,1465 1032.97,904.815 1089.46,844.44C1156.88,772.376 1161.53,997.049 1254.96,1053.74" style="fill:none;stroke:rgb(35,31,32);stroke-width:75px;"/>
                    </g>
                </g>
                <g transform="matrix(0.256007,0.855404,-0.42279,0.517962,4628.69,-1522.3)">
                    <g>
                        <g transform="matrix(0.575573,8.68361e-18,8.68361e-18,0.575573,915.651,590.146)">
                            <path d="M2092.15,1382.54L2120.72,1210.27" style="fill:none;stroke:rgb(35,31,32);stroke-width:130.3px;"/>
                        </g>
                        <g transform="matrix(-0.23792,0.524097,0.524097,0.23792,1995.81,1.64823)">
                            <path d="M2092.15,1382.54L2120.72,1210.27" style="fill:none;stroke:rgb(35,31,32);stroke-width:130.3px;"/>
                        </g>
                    </g>
                </g>
                <g transform="matrix(-0.0381165,-0.997022,0.492786,-0.0771186,3471.43,3507.71)">
                    <g>
                        <g transform="matrix(0.575573,8.68361e-18,8.68361e-18,0.575573,915.651,590.146)">
                            <path d="M2092.15,1382.54L2120.72,1210.27" style="fill:none;stroke:rgb(35,31,32);stroke-width:130.3px;"/>
                        </g>
                        <g transform="matrix(-0.23792,0.524097,0.524097,0.23792,1995.81,1.64823)">
                            <path d="M2092.15,1382.54L2120.72,1210.27" style="fill:none;stroke:rgb(35,31,32);stroke-width:130.3px;"/>
                        </g>
                    </g>
                </g>
                <g transform="matrix(0.581147,0,0,0.545453,3390.73,164.225)">
                    <g transform="matrix(0.850487,-0,-0,1.83334,970.578,-387.013)">
                        <path d="M1558.8,1204.8C1573.28,1166.02 1553.55,1122.78 1514.77,1108.31C1475.99,1093.83 1432.75,1113.56 1418.28,1152.34C1403.8,1191.12 1423.53,1234.36 1462.31,1248.83C1501.09,1263.31 1544.33,1243.58 1558.8,1204.8Z" style="fill:none;stroke:rgb(35,31,32);stroke-width:75px;stroke-linejoin:miter;stroke-miterlimit:10;"/>
                        <path d="M1462.31,1248.83C1244.71,1528.72 545.013,1571.38 242.826,1329.55" style="fill:none;stroke:rgb(35,31,32);stroke-width:75px;"/>
                    </g>
                </g>
                <g transform="matrix(0.494258,0,0,1,3570.69,-439.873)">
                    <g transform="matrix(1,-0,-0,1,777.096,393)">
                        <path d="M171.207,1005.94C112.086,986.971 48.684,1019.57 29.711,1078.69C10.739,1137.81 43.334,1201.21 102.455,1220.18C161.576,1239.15 224.977,1206.56 243.95,1147.44C262.923,1088.32 230.327,1024.92 171.207,1005.94Z" style="fill:white;"/>
                        <path d="M201.102,1133.69C246.526,1139.55 295.637,1138.13 341.295,1120.97C480.939,1068.48 563.508,534.184 585.698,375.898C702.534,-457.537 727.457,973.08 870.226,1282.83C954.189,1465 1032.97,904.815 1089.46,844.44C1156.88,772.376 1161.53,997.049 1254.96,1053.74" style="fill:none;stroke:white;stroke-width:75px;"/>
                    </g>
                </g>
                <g transform="matrix(0.256007,0.855404,-0.42279,0.517962,4628.69,-1522.3)">
                    <g>
                        <g transform="matrix(0.575573,8.68361e-18,8.68361e-18,0.575573,915.651,590.146)">
                            <path d="M2092.15,1382.54L2120.72,1210.27" style="fill:none;stroke:white;stroke-width:130.3px;"/>
                        </g>
                        <g transform="matrix(-0.23792,0.524097,0.524097,0.23792,1995.81,1.64823)">
                            <path d="M2092.15,1382.54L2120.72,1210.27" style="fill:none;stroke:white;stroke-width:130.3px;"/>
                        </g>
                    </g>
                </g>
                <g transform="matrix(-0.0381165,-0.997022,0.492786,-0.0771186,3471.43,3507.71)">
                    <g>
                        <g transform="matrix(0.575573,8.68361e-18,8.68361e-18,0.575573,915.651,590.146)">
                            <path d="M2092.15,1382.54L2120.72,1210.27" style="fill:none;stroke:white;stroke-width:130.3px;"/>
                        </g>
                        <g transform="matrix(-0.23792,0.524097,0.524097,0.23792,1995.81,1.64823)">
                            <path d="M2092.15,1382.54L2120.72,1210.27" style="fill:none;stroke:white;stroke-width:130.3px;"/>
                        </g>
                    </g>
                </g>
                <g transform="matrix(0.581147,0,0,0.545453,3390.73,164.225)">
                    <g transform="matrix(0.850487,-0,-0,1.83334,970.578,-387.013)">
                        <path d="M1558.8,1204.8C1573.28,1166.02 1553.55,1122.78 1514.77,1108.31C1475.99,1093.83 1432.75,1113.56 1418.28,1152.34C1403.8,1191.12 1423.53,1234.36 1462.31,1248.83C1501.09,1263.31 1544.33,1243.58 1558.8,1204.8Z" style="fill:none;stroke:white;stroke-width:75px;stroke-linejoin:miter;stroke-miterlimit:10;"/>
                        <path d="M1462.31,1248.83C1244.71,1528.72 545.013,1571.38 242.826,1329.55" style="fill:none;stroke:white;stroke-width:75px;"/>
                    </g>
                </g>
                <g transform="matrix(0.494258,0,0,1,2070.13,73.6133)">
                    <g transform="matrix(1250,0,0,1250,5581.63,1135.13)">
                        <path d="M0.619,-0L0.559,-0L0.15,-0.608L0.15,-0L0.09,-0L0.09,-0.711L0.15,-0.711L0.56,-0.102L0.56,-0.711L0.619,-0.711L0.619,-0Z" style="fill:white;fill-rule:nonzero;"/>
                    </g>
                    <g transform="matrix(1250,0,0,1250,6469.08,1135.13)">
                        <path d="M0.281,0.01C0.236,0.01 0.195,-0.001 0.159,-0.023C0.123,-0.046 0.094,-0.076 0.074,-0.116C0.054,-0.156 0.044,-0.2 0.044,-0.249L0.044,-0.27C0.044,-0.321 0.054,-0.367 0.073,-0.407C0.093,-0.448 0.121,-0.48 0.156,-0.503C0.191,-0.526 0.229,-0.538 0.27,-0.538C0.334,-0.538 0.385,-0.516 0.423,-0.472C0.46,-0.429 0.479,-0.369 0.479,-0.293L0.479,-0.26L0.102,-0.26L0.102,-0.249C0.102,-0.189 0.119,-0.139 0.154,-0.099C0.188,-0.059 0.231,-0.04 0.283,-0.04C0.314,-0.04 0.342,-0.045 0.366,-0.057C0.39,-0.068 0.412,-0.086 0.431,-0.111L0.468,-0.083C0.425,-0.021 0.362,0.01 0.281,0.01ZM0.27,-0.488C0.226,-0.488 0.189,-0.472 0.159,-0.44C0.129,-0.408 0.111,-0.364 0.104,-0.31L0.421,-0.31L0.421,-0.316C0.419,-0.367 0.405,-0.409 0.377,-0.44C0.35,-0.472 0.314,-0.488 0.27,-0.488Z" style="fill:white;fill-rule:nonzero;"/>
                    </g>
                    <g transform="matrix(1250,0,0,1250,7114.83,1135.13)">
                        <path d="M0.416,-0.067C0.381,-0.016 0.325,0.01 0.248,0.01C0.191,0.01 0.148,-0.007 0.119,-0.039C0.09,-0.072 0.075,-0.12 0.074,-0.185L0.074,-0.528L0.132,-0.528L0.132,-0.192C0.132,-0.091 0.173,-0.041 0.254,-0.041C0.339,-0.041 0.393,-0.076 0.415,-0.146L0.415,-0.528L0.474,-0.528L0.474,-0L0.417,-0L0.416,-0.067Z" style="fill:white;fill-rule:nonzero;"/>
                    </g>
                    <g transform="matrix(1250,0,0,1250,7801.48,1135.13)">
                        <path d="M0.32,-0.479C0.308,-0.481 0.295,-0.482 0.281,-0.482C0.244,-0.482 0.213,-0.472 0.188,-0.451C0.163,-0.431 0.145,-0.402 0.134,-0.363L0.134,-0L0.076,-0L0.076,-0.528L0.133,-0.528L0.134,-0.444C0.165,-0.507 0.215,-0.538 0.283,-0.538C0.299,-0.538 0.312,-0.536 0.322,-0.532L0.32,-0.479Z" style="fill:white;fill-rule:nonzero;"/>
                    </g>
                    <g transform="matrix(1250,0,0,1250,8209.8,1135.13)">
                        <path d="M0.044,-0.272C0.044,-0.323 0.054,-0.368 0.073,-0.409C0.093,-0.45 0.121,-0.482 0.157,-0.504C0.193,-0.527 0.234,-0.538 0.279,-0.538C0.35,-0.538 0.407,-0.513 0.45,-0.464C0.494,-0.415 0.516,-0.349 0.516,-0.268L0.516,-0.256C0.516,-0.205 0.506,-0.159 0.486,-0.118C0.466,-0.077 0.439,-0.046 0.403,-0.023C0.367,-0.001 0.326,0.01 0.28,0.01C0.21,0.01 0.153,-0.015 0.11,-0.064C0.066,-0.114 0.044,-0.179 0.044,-0.26L0.044,-0.272ZM0.103,-0.256C0.103,-0.193 0.119,-0.141 0.152,-0.1C0.184,-0.06 0.227,-0.04 0.28,-0.04C0.333,-0.04 0.376,-0.06 0.408,-0.1C0.441,-0.141 0.458,-0.194 0.458,-0.261L0.458,-0.272C0.458,-0.312 0.45,-0.349 0.435,-0.383C0.42,-0.416 0.399,-0.442 0.372,-0.461C0.345,-0.479 0.314,-0.488 0.279,-0.488C0.227,-0.488 0.185,-0.468 0.152,-0.427C0.119,-0.386 0.103,-0.333 0.103,-0.267L0.103,-0.256Z" style="fill:white;fill-rule:nonzero;"/>
                    </g>
                    <g transform="matrix(1250,0,0,1250,8909.88,1135.13)">
                        <path d="M0.271,-0.04C0.312,-0.04 0.346,-0.051 0.374,-0.074C0.401,-0.097 0.416,-0.127 0.418,-0.163L0.475,-0.163C0.473,-0.131 0.463,-0.101 0.444,-0.075C0.426,-0.048 0.401,-0.028 0.37,-0.013C0.34,0.002 0.307,0.01 0.271,0.01C0.202,0.01 0.147,-0.014 0.107,-0.063C0.066,-0.111 0.046,-0.175 0.046,-0.257L0.046,-0.274C0.046,-0.326 0.055,-0.373 0.073,-0.413C0.091,-0.453 0.118,-0.484 0.152,-0.505C0.186,-0.527 0.225,-0.538 0.271,-0.538C0.329,-0.538 0.377,-0.521 0.414,-0.486C0.452,-0.452 0.472,-0.406 0.475,-0.35L0.418,-0.35C0.416,-0.391 0.401,-0.425 0.374,-0.45C0.347,-0.476 0.312,-0.488 0.271,-0.488C0.218,-0.488 0.177,-0.469 0.148,-0.431C0.119,-0.393 0.104,-0.34 0.104,-0.271L0.104,-0.254C0.104,-0.187 0.119,-0.134 0.148,-0.096C0.177,-0.058 0.218,-0.04 0.271,-0.04Z" style="fill:white;fill-rule:nonzero;"/>
                    </g>
                    <g transform="matrix(1250,0,0,1250,9553.8,1135.13)">
                        <path d="M0.244,-0.084L0.398,-0.528L0.461,-0.528L0.235,0.09L0.224,0.117C0.195,0.181 0.15,0.213 0.089,0.213C0.075,0.213 0.06,0.211 0.044,0.207L0.044,0.158L0.074,0.161C0.103,0.161 0.126,0.154 0.144,0.14C0.162,0.126 0.177,0.101 0.189,0.067L0.215,-0.004L0.016,-0.528L0.08,-0.528L0.244,-0.084Z" style="fill:white;fill-rule:nonzero;"/>
                    </g>
                    <g transform="matrix(1250,0,0,1250,10147.7,1135.13)">
                        <path d="M0.167,-0.664L0.167,-0.528L0.276,-0.528L0.276,-0.48L0.167,-0.48L0.167,-0.128C0.167,-0.099 0.172,-0.077 0.183,-0.063C0.193,-0.049 0.211,-0.042 0.236,-0.042C0.246,-0.042 0.261,-0.043 0.283,-0.046L0.286,0.001C0.27,0.007 0.25,0.01 0.223,0.01C0.183,0.01 0.154,-0.002 0.136,-0.025C0.118,-0.048 0.108,-0.083 0.108,-0.128L0.108,-0.48L0.011,-0.48L0.011,-0.528L0.108,-0.528L0.108,-0.664L0.167,-0.664Z" style="fill:white;fill-rule:nonzero;"/>
                    </g>
                    <g transform="matrix(1250,0,0,1250,10549.3,1135.13)">
                        <path d="M0.281,0.01C0.236,0.01 0.195,-0.001 0.159,-0.023C0.123,-0.046 0.094,-0.076 0.074,-0.116C0.054,-0.156 0.044,-0.2 0.044,-0.249L0.044,-0.27C0.044,-0.321 0.054,-0.367 0.073,-0.407C0.093,-0.448 0.121,-0.48 0.156,-0.503C0.191,-0.526 0.229,-0.538 0.27,-0.538C0.334,-0.538 0.385,-0.516 0.423,-0.472C0.46,-0.429 0.479,-0.369 0.479,-0.293L0.479,-0.26L0.102,-0.26L0.102,-0.249C0.102,-0.189 0.119,-0.139 0.154,-0.099C0.188,-0.059 0.231,-0.04 0.283,-0.04C0.314,-0.04 0.342,-0.045 0.366,-0.057C0.39,-0.068 0.412,-0.086 0.431,-0.111L0.468,-0.083C0.425,-0.021 0.362,0.01 0.281,0.01ZM0.27,-0.488C0.226,-0.488 0.189,-0.472 0.159,-0.44C0.129,-0.408 0.111,-0.364 0.104,-0.31L0.421,-0.31L0.421,-0.316C0.419,-0.367 0.405,-0.409 0.377,-0.44C0.35,-0.472 0.314,-0.488 0.27,-0.488Z" style="fill:white;fill-rule:nonzero;"/>
                    </g>
                </g>
            </g>
        </g>
    </g>
</svg>
