<?xml version="1.0" encoding="UTF-8" standalone="no"?>
<!DOCTYPE svg PUBLIC "-//W3C//DTD SVG 1.1//EN" "http://www.w3.org/Graphics/SVG/1.1/DTD/svg11.dtd">
<svg width="100%" height="100%" viewBox="0 0 1652 1510" version="1.1" xmlns="http://www.w3.org/2000/svg" xmlns:xlink="http://www.w3.org/1999/xlink" xml:space="preserve" xmlns:serif="http://www.serif.com/" style="fill-rule:evenodd;clip-rule:evenodd;stroke-linecap:round;stroke-linejoin:round;stroke-miterlimit:1.5;">
    <g transform="matrix(1,0,0,1,0,-50)">
        <g transform="matrix(0.99456,0,0,1,-763.075,-393.429)">
            <rect id="Black" x="767.25" y="443.429" width="1660.93" height="1509.71" style="fill:none;"/>
            <clipPath id="_clip1">
                <rect id="Black1" serif:id="Black" x="767.25" y="443.429" width="1660.93" height="1509.71"/>
            </clipPath>
            <g clip-path="url(#_clip1)">
                <g transform="matrix(1.00547,0,0,1,-3.94604,0.429047)">
                    <g transform="matrix(1,-0,-0,1,767,443)">
                        <path d="M181.302,955.943C122.182,936.971 58.78,969.566 39.807,1028.69C20.835,1087.81 53.43,1151.21 112.551,1170.18C171.672,1189.15 235.073,1156.56 254.046,1097.44C273.019,1038.32 240.423,974.916 181.302,955.943Z" style="fill:rgb(35,31,32);"/>
                        <path d="M211.198,1083.69C256.622,1089.55 305.733,1088.13 351.391,1070.97C491.035,1018.48 573.604,484.184 595.794,325.898C712.63,-507.537 737.553,923.08 880.322,1232.83C964.285,1415 1043.07,854.815 1099.56,794.44C1166.98,722.376 1171.62,947.049 1265.06,1003.74" style="fill:none;stroke:rgb(35,31,32);stroke-width:75px;"/>
                    </g>
                </g>
                <g transform="matrix(0.520795,0.855404,-0.860083,0.517962,2148.35,-1082)">
                    <g>
                        <g transform="matrix(0.575573,8.68361e-18,8.68361e-18,0.575573,915.651,590.146)">
                            <path d="M2092.15,1382.54L2120.72,1210.27" style="fill:none;stroke:rgb(35,31,32);stroke-width:130.3px;"/>
                        </g>
                        <g transform="matrix(-0.23792,0.524097,0.524097,0.23792,1995.81,1.64823)">
                            <path d="M2092.15,1382.54L2120.72,1210.27" style="fill:none;stroke:rgb(35,31,32);stroke-width:130.3px;"/>
                        </g>
                    </g>
                </g>
                <g transform="matrix(-0.0775405,-0.997022,1.00248,-0.0771186,-205.866,3948.02)">
                    <g>
                        <g transform="matrix(0.575573,8.68361e-18,8.68361e-18,0.575573,915.651,590.146)">
                            <path d="M2092.15,1382.54L2120.72,1210.27" style="fill:none;stroke:rgb(35,31,32);stroke-width:130.3px;"/>
                        </g>
                        <g transform="matrix(-0.23792,0.524097,0.524097,0.23792,1995.81,1.64823)">
                            <path d="M2092.15,1382.54L2120.72,1210.27" style="fill:none;stroke:rgb(35,31,32);stroke-width:130.3px;"/>
                        </g>
                    </g>
                </g>
                <g transform="matrix(1.18223,0,0,0.545453,-370.045,604.527)">
                    <g transform="matrix(0.850487,-0,-0,1.83334,961.992,-295.347)">
                        <path d="M1568.9,1154.8C1583.38,1116.02 1563.64,1072.78 1524.87,1058.31C1486.09,1043.83 1442.85,1063.56 1428.37,1102.34C1413.89,1141.12 1433.62,1184.36 1472.4,1198.83C1511.18,1213.31 1554.42,1193.58 1568.9,1154.8Z" style="fill:none;stroke:rgb(35,31,32);stroke-width:75px;stroke-linejoin:miter;stroke-miterlimit:10;"/>
                        <path d="M1472.4,1198.83C1254.81,1478.72 555.109,1521.38 252.922,1279.55" style="fill:none;stroke:rgb(35,31,32);stroke-width:75px;"/>
                    </g>
                </g>
                <g transform="matrix(1.00547,0,0,1,-3.94604,0.429047)">
                    <g transform="matrix(1,-0,-0,1,767,443)">
                        <path d="M181.302,955.943C122.182,936.971 58.78,969.566 39.807,1028.69C20.835,1087.81 53.43,1151.21 112.551,1170.18C171.672,1189.15 235.073,1156.56 254.046,1097.44C273.019,1038.32 240.423,974.916 181.302,955.943Z" style="fill:rgb(35,31,32);"/>
                        <path d="M211.198,1083.69C256.622,1089.55 305.733,1088.13 351.391,1070.97C491.035,1018.48 573.604,484.184 595.794,325.898C712.63,-507.537 737.553,923.08 880.322,1232.83C964.285,1415 1043.07,854.815 1099.56,794.44C1166.98,722.376 1171.62,947.049 1265.06,1003.74" style="fill:none;stroke:rgb(35,31,32);stroke-width:75px;"/>
                    </g>
                </g>
                <g transform="matrix(0.520795,0.855404,-0.860083,0.517962,2148.35,-1082)">
                    <g>
                        <g transform="matrix(0.575573,8.68361e-18,8.68361e-18,0.575573,915.651,590.146)">
                            <path d="M2092.15,1382.54L2120.72,1210.27" style="fill:none;stroke:rgb(35,31,32);stroke-width:130.3px;"/>
                        </g>
                        <g transform="matrix(-0.23792,0.524097,0.524097,0.23792,1995.81,1.64823)">
                            <path d="M2092.15,1382.54L2120.72,1210.27" style="fill:none;stroke:rgb(35,31,32);stroke-width:130.3px;"/>
                        </g>
                    </g>
                </g>
                <g transform="matrix(-0.0775405,-0.997022,1.00248,-0.0771186,-205.866,3948.02)">
                    <g>
                        <g transform="matrix(0.575573,8.68361e-18,8.68361e-18,0.575573,915.651,590.146)">
                            <path d="M2092.15,1382.54L2120.72,1210.27" style="fill:none;stroke:rgb(35,31,32);stroke-width:130.3px;"/>
                        </g>
                        <g transform="matrix(-0.23792,0.524097,0.524097,0.23792,1995.81,1.64823)">
                            <path d="M2092.15,1382.54L2120.72,1210.27" style="fill:none;stroke:rgb(35,31,32);stroke-width:130.3px;"/>
                        </g>
                    </g>
                </g>
                <g transform="matrix(1.18223,0,0,0.545453,-370.045,604.527)">
                    <g transform="matrix(0.850487,-0,-0,1.83334,961.992,-295.347)">
                        <path d="M1568.9,1154.8C1583.38,1116.02 1563.64,1072.78 1524.87,1058.31C1486.09,1043.83 1442.85,1063.56 1428.37,1102.34C1413.89,1141.12 1433.62,1184.36 1472.4,1198.83C1511.18,1213.31 1554.42,1193.58 1568.9,1154.8Z" style="fill:none;stroke:rgb(35,31,32);stroke-width:75px;stroke-linejoin:miter;stroke-miterlimit:10;"/>
                        <path d="M1472.4,1198.83C1254.81,1478.72 555.109,1521.38 252.922,1279.55" style="fill:none;stroke:rgb(35,31,32);stroke-width:75px;"/>
                    </g>
                </g>
            </g>
        </g>
    </g>
</svg>
