<?xml version="1.0" encoding="UTF-8" standalone="no"?>
<!DOCTYPE svg PUBLIC "-//W3C//DTD SVG 1.1//EN" "http://www.w3.org/Graphics/SVG/1.1/DTD/svg11.dtd">
<svg width="100%" height="100%" viewBox="0 0 8031 1687" version="1.1" xmlns="http://www.w3.org/2000/svg" xmlns:xlink="http://www.w3.org/1999/xlink" xml:space="preserve" xmlns:serif="http://www.serif.com/" style="fill-rule:evenodd;clip-rule:evenodd;stroke-linecap:round;stroke-linejoin:round;stroke-miterlimit:1.5;">
    <g transform="matrix(1,0,0,1,-8651.09,-2070.38)">
        <g transform="matrix(2.16284,0,0,1,97.5503,2117.26)">
            <rect id="White---Text" serif:id="White + Text" x="3954.78" y="-46.873" width="3712.85" height="1686.73" style="fill:none;"/>
            <g id="White---Text1" serif:id="White + Text">
                <g transform="matrix(0.462356,0,0,1,3595.48,-439.873)">
                    <g transform="matrix(1,-0,-0,1,777.096,393)">
                        <path d="M171.207,1005.94C112.086,986.971 48.684,1019.57 29.711,1078.69C10.739,1137.81 43.334,1201.21 102.455,1220.18C161.576,1239.15 224.977,1206.56 243.95,1147.44C262.923,1088.32 230.327,1024.92 171.207,1005.94Z" style="fill:rgb(35,31,32);"/>
                        <path d="M201.102,1133.69C246.526,1139.55 295.637,1138.13 341.295,1120.97C480.939,1068.48 563.508,534.184 585.698,375.898C702.534,-457.537 727.457,973.08 870.226,1282.83C954.189,1465 1032.97,904.815 1089.46,844.44C1156.88,772.376 1161.53,997.049 1254.96,1053.74" style="fill:none;stroke:rgb(35,31,32);stroke-width:75px;"/>
                    </g>
                </g>
                <g transform="matrix(0.239482,0.855404,-0.395501,0.517962,4585.19,-1522.3)">
                    <g>
                        <g transform="matrix(0.575573,8.68361e-18,8.68361e-18,0.575573,915.651,590.146)">
                            <path d="M2092.15,1382.54L2120.72,1210.27" style="fill:none;stroke:rgb(35,31,32);stroke-width:130.3px;"/>
                        </g>
                        <g transform="matrix(-0.23792,0.524097,0.524097,0.23792,1995.81,1.64823)">
                            <path d="M2092.15,1382.54L2120.72,1210.27" style="fill:none;stroke:rgb(35,31,32);stroke-width:130.3px;"/>
                        </g>
                    </g>
                </g>
                <g transform="matrix(-0.0356562,-0.997022,0.460979,-0.0771186,3502.63,3507.71)">
                    <g>
                        <g transform="matrix(0.575573,8.68361e-18,8.68361e-18,0.575573,915.651,590.146)">
                            <path d="M2092.15,1382.54L2120.72,1210.27" style="fill:none;stroke:rgb(35,31,32);stroke-width:130.3px;"/>
                        </g>
                        <g transform="matrix(-0.23792,0.524097,0.524097,0.23792,1995.81,1.64823)">
                            <path d="M2092.15,1382.54L2120.72,1210.27" style="fill:none;stroke:rgb(35,31,32);stroke-width:130.3px;"/>
                        </g>
                    </g>
                </g>
                <g transform="matrix(0.543637,0,0,0.545453,3427.14,164.225)">
                    <g transform="matrix(0.850487,-0,-0,1.83334,970.578,-387.013)">
                        <path d="M1558.8,1204.8C1573.28,1166.02 1553.55,1122.78 1514.77,1108.31C1475.99,1093.83 1432.75,1113.56 1418.28,1152.34C1403.8,1191.12 1423.53,1234.36 1462.31,1248.83C1501.09,1263.31 1544.33,1243.58 1558.8,1204.8Z" style="fill:none;stroke:rgb(35,31,32);stroke-width:75px;stroke-linejoin:miter;stroke-miterlimit:10;"/>
                        <path d="M1462.31,1248.83C1244.71,1528.72 545.013,1571.38 242.826,1329.55" style="fill:none;stroke:rgb(35,31,32);stroke-width:75px;"/>
                    </g>
                </g>
                <g transform="matrix(0.462356,0,0,1,3595.48,-439.873)">
                    <g transform="matrix(1,-0,-0,1,777.096,393)">
                        <path d="M171.207,1005.94C112.086,986.971 48.684,1019.57 29.711,1078.69C10.739,1137.81 43.334,1201.21 102.455,1220.18C161.576,1239.15 224.977,1206.56 243.95,1147.44C262.923,1088.32 230.327,1024.92 171.207,1005.94Z" style="fill:white;"/>
                        <path d="M201.102,1133.69C246.526,1139.55 295.637,1138.13 341.295,1120.97C480.939,1068.48 563.508,534.184 585.698,375.898C702.534,-457.537 727.457,973.08 870.226,1282.83C954.189,1465 1032.97,904.815 1089.46,844.44C1156.88,772.376 1161.53,997.049 1254.96,1053.74" style="fill:none;stroke:white;stroke-width:75px;"/>
                    </g>
                </g>
                <g transform="matrix(0.239482,0.855404,-0.395501,0.517962,4585.19,-1522.3)">
                    <g>
                        <g transform="matrix(0.575573,8.68361e-18,8.68361e-18,0.575573,915.651,590.146)">
                            <path d="M2092.15,1382.54L2120.72,1210.27" style="fill:none;stroke:white;stroke-width:130.3px;"/>
                        </g>
                        <g transform="matrix(-0.23792,0.524097,0.524097,0.23792,1995.81,1.64823)">
                            <path d="M2092.15,1382.54L2120.72,1210.27" style="fill:none;stroke:white;stroke-width:130.3px;"/>
                        </g>
                    </g>
                </g>
                <g transform="matrix(-0.0356562,-0.997022,0.460979,-0.0771186,3502.63,3507.71)">
                    <g>
                        <g transform="matrix(0.575573,8.68361e-18,8.68361e-18,0.575573,915.651,590.146)">
                            <path d="M2092.15,1382.54L2120.72,1210.27" style="fill:none;stroke:white;stroke-width:130.3px;"/>
                        </g>
                        <g transform="matrix(-0.23792,0.524097,0.524097,0.23792,1995.81,1.64823)">
                            <path d="M2092.15,1382.54L2120.72,1210.27" style="fill:none;stroke:white;stroke-width:130.3px;"/>
                        </g>
                    </g>
                </g>
                <g transform="matrix(0.543637,0,0,0.545453,3427.14,164.225)">
                    <g transform="matrix(0.850487,-0,-0,1.83334,970.578,-387.013)">
                        <path d="M1558.8,1204.8C1573.28,1166.02 1553.55,1122.78 1514.77,1108.31C1475.99,1093.83 1432.75,1113.56 1418.28,1152.34C1403.8,1191.12 1423.53,1234.36 1462.31,1248.83C1501.09,1263.31 1544.33,1243.58 1558.8,1204.8Z" style="fill:none;stroke:white;stroke-width:75px;stroke-linejoin:miter;stroke-miterlimit:10;"/>
                        <path d="M1462.31,1248.83C1244.71,1528.72 545.013,1571.38 242.826,1329.55" style="fill:none;stroke:white;stroke-width:75px;"/>
                    </g>
                </g>
                <g transform="matrix(0.462356,0,0,1,2191.78,73.6133)">
                    <g transform="matrix(1250,0,0,1250,5581.63,1132.69)">
                        <path d="M0.089,-0L0.089,-0.727L0.162,-0.727L0.562,-0.114L0.587,-0.078C0.585,-0.178 0.584,-0.241 0.584,-0.265L0.584,-0.727L0.643,-0.727L0.643,-0L0.569,-0L0.17,-0.612L0.145,-0.647C0.148,-0.574 0.149,-0.511 0.149,-0.458L0.149,-0L0.089,-0Z" style="fill:white;fill-rule:nonzero;"/>
                    </g>
                    <g transform="matrix(1250,0,0,1250,6546.55,1132.69)">
                        <path d="M0.289,0.012C0.215,0.012 0.156,-0.013 0.113,-0.063C0.069,-0.112 0.047,-0.179 0.047,-0.264C0.047,-0.345 0.069,-0.412 0.111,-0.464C0.154,-0.516 0.208,-0.543 0.276,-0.545C0.339,-0.545 0.389,-0.522 0.427,-0.478C0.465,-0.433 0.484,-0.372 0.484,-0.297C0.484,-0.294 0.484,-0.264 0.484,-0.26L0.111,-0.26C0.112,-0.192 0.129,-0.137 0.161,-0.097C0.194,-0.057 0.237,-0.037 0.29,-0.037C0.325,-0.037 0.355,-0.041 0.381,-0.049C0.407,-0.057 0.433,-0.069 0.461,-0.083L0.472,-0.038C0.418,-0.005 0.357,0.012 0.289,0.012ZM0.114,-0.309L0.418,-0.309C0.418,-0.369 0.406,-0.414 0.38,-0.446C0.354,-0.478 0.319,-0.494 0.274,-0.494C0.228,-0.494 0.192,-0.477 0.164,-0.443C0.136,-0.409 0.119,-0.364 0.114,-0.309Z" style="fill:white;fill-rule:nonzero;"/>
                    </g>
                    <g transform="matrix(1250,0,0,1250,7263.66,1132.69)">
                        <path d="M0.271,0.013C0.243,0.013 0.217,0.01 0.193,0.004C0.169,-0.003 0.147,-0.013 0.126,-0.026C0.106,-0.04 0.09,-0.059 0.078,-0.083C0.066,-0.108 0.06,-0.137 0.06,-0.171L0.06,-0.535L0.121,-0.535L0.121,-0.169C0.121,-0.144 0.125,-0.123 0.132,-0.105C0.14,-0.087 0.151,-0.074 0.166,-0.065C0.181,-0.056 0.196,-0.05 0.213,-0.046C0.229,-0.043 0.249,-0.041 0.271,-0.041C0.293,-0.041 0.312,-0.043 0.329,-0.047C0.345,-0.05 0.361,-0.057 0.375,-0.066C0.389,-0.075 0.4,-0.088 0.408,-0.106C0.416,-0.123 0.419,-0.144 0.419,-0.169L0.419,-0.535L0.48,-0.535L0.48,-0.171C0.48,-0.144 0.476,-0.119 0.468,-0.098C0.46,-0.076 0.45,-0.059 0.437,-0.045C0.424,-0.031 0.408,-0.02 0.39,-0.011C0.372,-0.002 0.353,0.004 0.333,0.008C0.314,0.011 0.293,0.013 0.271,0.013Z" style="fill:white;fill-rule:nonzero;"/>
                    </g>
                    <g transform="matrix(1250,0,0,1250,7988.71,1132.69)">
                        <path d="M0.073,-0C0.072,-0.314 0.072,-0.493 0.072,-0.535L0.122,-0.535L0.125,-0.43C0.145,-0.462 0.169,-0.488 0.199,-0.508C0.228,-0.528 0.259,-0.538 0.292,-0.538C0.305,-0.538 0.319,-0.537 0.334,-0.535L0.33,-0.484C0.318,-0.486 0.306,-0.487 0.293,-0.487C0.248,-0.487 0.21,-0.469 0.179,-0.434C0.148,-0.398 0.133,-0.356 0.133,-0.307L0.133,-0L0.073,-0Z" style="fill:white;fill-rule:nonzero;"/>
                    </g>
                    <g transform="matrix(1250,0,0,1250,8463.51,1132.69)">
                        <path d="M0.293,-0.037C0.333,-0.037 0.365,-0.047 0.392,-0.068C0.419,-0.088 0.439,-0.116 0.451,-0.149C0.463,-0.183 0.469,-0.222 0.469,-0.266C0.469,-0.335 0.455,-0.391 0.425,-0.433C0.396,-0.475 0.351,-0.496 0.292,-0.496C0.252,-0.496 0.219,-0.485 0.192,-0.464C0.164,-0.443 0.144,-0.416 0.131,-0.382C0.119,-0.348 0.112,-0.309 0.112,-0.265C0.112,-0.198 0.128,-0.143 0.159,-0.101C0.19,-0.058 0.235,-0.037 0.293,-0.037ZM0.289,0.012C0.241,0.012 0.198,-0 0.161,-0.025C0.124,-0.049 0.096,-0.082 0.076,-0.124C0.057,-0.166 0.047,-0.213 0.047,-0.266C0.047,-0.306 0.053,-0.343 0.064,-0.377C0.075,-0.411 0.091,-0.44 0.112,-0.465C0.133,-0.49 0.159,-0.51 0.19,-0.524C0.221,-0.538 0.255,-0.545 0.293,-0.545C0.343,-0.545 0.387,-0.533 0.423,-0.508C0.46,-0.483 0.488,-0.45 0.506,-0.409C0.524,-0.367 0.534,-0.32 0.534,-0.267C0.534,-0.214 0.524,-0.166 0.505,-0.125C0.486,-0.083 0.458,-0.05 0.421,-0.025C0.383,-0.001 0.34,0.012 0.289,0.012Z" style="fill:white;fill-rule:nonzero;"/>
                    </g>
                    <g transform="matrix(1250,0,0,1250,9239.83,1132.69)">
                        <path d="M0.295,0.012C0.243,0.012 0.198,-0.001 0.16,-0.026C0.122,-0.052 0.094,-0.085 0.075,-0.126C0.057,-0.167 0.047,-0.212 0.047,-0.262C0.047,-0.301 0.053,-0.337 0.064,-0.371C0.075,-0.404 0.091,-0.434 0.111,-0.46C0.131,-0.486 0.158,-0.507 0.19,-0.522C0.222,-0.537 0.257,-0.545 0.297,-0.545C0.323,-0.545 0.348,-0.542 0.374,-0.535C0.399,-0.528 0.418,-0.52 0.431,-0.51L0.412,-0.465C0.378,-0.484 0.338,-0.493 0.292,-0.493C0.237,-0.493 0.193,-0.472 0.16,-0.43C0.128,-0.388 0.111,-0.332 0.111,-0.262C0.111,-0.195 0.128,-0.142 0.16,-0.1C0.192,-0.059 0.236,-0.039 0.292,-0.039C0.332,-0.039 0.374,-0.048 0.418,-0.068L0.428,-0.024C0.412,-0.013 0.393,-0.004 0.368,0.002C0.344,0.009 0.319,0.012 0.295,0.012Z" style="fill:white;fill-rule:nonzero;"/>
                    </g>
                    <g transform="matrix(1250,0,0,1250,9878.82,1132.69)">
                        <path d="M0.048,0.254C0.034,0.254 0.02,0.253 0.006,0.25L0.002,0.2C0.003,0.2 0.008,0.2 0.016,0.201C0.025,0.201 0.031,0.202 0.036,0.202C0.077,0.202 0.107,0.195 0.128,0.181C0.148,0.167 0.167,0.139 0.183,0.099C0.185,0.093 0.19,0.079 0.198,0.057C0.206,0.034 0.213,0.016 0.217,0.003L0.003,-0.535L0.067,-0.535L0.249,-0.054C0.249,-0.054 0.256,-0.076 0.271,-0.121C0.361,-0.401 0.406,-0.54 0.409,-0.54C0.409,-0.54 0.409,-0.538 0.408,-0.535L0.472,-0.535C0.329,-0.134 0.255,0.075 0.248,0.094C0.226,0.148 0.199,0.188 0.169,0.214C0.139,0.241 0.098,0.254 0.048,0.254Z" style="fill:white;fill-rule:nonzero;"/>
                    </g>
                    <g transform="matrix(1250,0,0,1250,10527.6,1132.69)">
                        <path d="M0.223,0.011C0.178,0.011 0.145,0.001 0.124,-0.019C0.103,-0.04 0.093,-0.073 0.093,-0.119L0.093,-0.491L0.017,-0.491L0.021,-0.527L0.094,-0.534L0.11,-0.657L0.152,-0.66L0.152,-0.535L0.309,-0.535L0.309,-0.491L0.152,-0.491L0.152,-0.131C0.152,-0.094 0.159,-0.068 0.171,-0.055C0.183,-0.043 0.205,-0.036 0.236,-0.036C0.257,-0.036 0.282,-0.04 0.312,-0.047L0.314,-0C0.275,0.007 0.244,0.011 0.223,0.011Z" style="fill:white;fill-rule:nonzero;"/>
                    </g>
                    <g transform="matrix(1250,0,0,1250,10990.2,1132.69)">
                        <path d="M0.289,0.012C0.215,0.012 0.156,-0.013 0.113,-0.063C0.069,-0.112 0.047,-0.179 0.047,-0.264C0.047,-0.345 0.069,-0.412 0.111,-0.464C0.154,-0.516 0.208,-0.543 0.276,-0.545C0.339,-0.545 0.389,-0.522 0.427,-0.478C0.465,-0.433 0.484,-0.372 0.484,-0.297C0.484,-0.294 0.484,-0.264 0.484,-0.26L0.111,-0.26C0.112,-0.192 0.129,-0.137 0.161,-0.097C0.194,-0.057 0.237,-0.037 0.29,-0.037C0.325,-0.037 0.355,-0.041 0.381,-0.049C0.407,-0.057 0.433,-0.069 0.461,-0.083L0.472,-0.038C0.418,-0.005 0.357,0.012 0.289,0.012ZM0.114,-0.309L0.418,-0.309C0.418,-0.369 0.406,-0.414 0.38,-0.446C0.354,-0.478 0.319,-0.494 0.274,-0.494C0.228,-0.494 0.192,-0.477 0.164,-0.443C0.136,-0.409 0.119,-0.364 0.114,-0.309Z" style="fill:white;fill-rule:nonzero;"/>
                    </g>
                </g>
            </g>
        </g>
    </g>
</svg>
