<?xml version="1.0" encoding="UTF-8" standalone="no"?>
<!DOCTYPE svg PUBLIC "-//W3C//DTD SVG 1.1//EN" "http://www.w3.org/Graphics/SVG/1.1/DTD/svg11.dtd">
<svg width="100%" height="100%" viewBox="0 0 8158 1489" version="1.1" xmlns="http://www.w3.org/2000/svg" xmlns:xlink="http://www.w3.org/1999/xlink" xml:space="preserve" xmlns:serif="http://www.serif.com/" style="fill-rule:evenodd;clip-rule:evenodd;stroke-linecap:round;stroke-linejoin:round;stroke-miterlimit:1.5;">
    <g transform="matrix(1,0,0,1,-8588.72,-7908.52)">
        <g transform="matrix(4.35517,0,0,0.768927,-3344.08,4588.37)">
            <rect id="Black---Text--New-" serif:id="Black + Text (New)" x="2739.91" y="4317.9" width="1873.12" height="1935.53" style="fill:none;"/>
            <g id="Black---Text--New-1" serif:id="Black + Text (New)">
                <g transform="matrix(0.285745,0,0,1.30051,2516.57,3925.57)">
                    <g transform="matrix(0.803556,-0,-0,1,781.618,301.674)">
                        <path d="M170.475,1092.84C110.784,1075.74 48.443,1110.32 31.347,1170.01C14.251,1229.7 48.833,1292.04 108.523,1309.14C168.213,1326.24 230.554,1291.65 247.65,1231.96C264.746,1172.27 230.165,1109.93 170.475,1092.84Z" style="fill:white;"/>
                        <path d="M204.39,1219.57C271.227,1230.64 348.483,1233.63 419.103,1212.3C592.885,1159.81 695.64,625.51 723.255,467.224C868.654,-366.211 899.67,1064.41 1077.34,1374.16C1181.83,1556.33 1267.2,1237.62 1407.06,1175.2" style="fill:none;stroke:white;stroke-width:75px;"/>
                    </g>
                </g>
                <g transform="matrix(0.204072,-0.596097,0.105244,1.15586,2482.41,5481.06)">
                    <g>
                        <g transform="matrix(0.575573,8.68361e-18,8.68361e-18,0.575573,915.651,590.146)">
                            <path d="M2092.15,1382.54L2120.72,1210.27" style="fill:none;stroke:white;stroke-width:130.3px;"/>
                        </g>
                        <g transform="matrix(-0.23792,0.524097,0.524097,0.23792,1995.81,1.64823)">
                            <path d="M2092.15,1382.54L2120.72,1210.27" style="fill:none;stroke:white;stroke-width:130.3px;"/>
                        </g>
                    </g>
                </g>
                <g transform="matrix(0.250069,1.73457e-16,2.70797e-17,-1.25243,2509.34,7325.46)">
                    <g transform="matrix(0.918195,1.27166e-16,1.12446e-16,-1.03839,922.045,2401.39)">
                        <path d="M1468.41,959.181C1478.79,999.252 1519.75,1023.36 1559.82,1012.98C1599.89,1002.6 1624,961.635 1613.62,921.564C1603.24,881.494 1562.28,857.389 1522.2,867.769C1482.13,878.15 1458.03,919.11 1468.41,959.181Z" style="fill:none;stroke:white;stroke-width:75px;stroke-linejoin:miter;stroke-miterlimit:10;"/>
                        <path d="M1522.2,867.769C1174.22,-315.777 342.06,-148.872 176.005,944.886" style="fill:none;stroke:white;stroke-width:75px;"/>
                    </g>
                </g>
                <g transform="matrix(-0.147896,0.994804,-0.175637,-0.837676,3339.19,4627.79)">
                    <g>
                        <g>
                            <g transform="matrix(0.575573,1.18101e-17,5.76206e-18,0.575573,915.651,590.146)">
                                <path d="M2092.15,1382.54L2120.72,1210.27" style="fill:none;stroke:white;stroke-width:130.3px;"/>
                            </g>
                            <g transform="matrix(-0.23792,0.524097,0.524097,0.23792,1995.81,1.64823)">
                                <path d="M2092.15,1382.54L2120.72,1210.27" style="fill:none;stroke:white;stroke-width:130.3px;"/>
                            </g>
                        </g>
                    </g>
                </g>
                <g transform="matrix(0.229612,0,0,1.30051,1887.21,4332.23)">
                    <g transform="matrix(1250,0,0,1250,5581.63,1132.69)">
                        <path d="M0.089,-0L0.089,-0.727L0.162,-0.727L0.562,-0.114L0.587,-0.078C0.585,-0.178 0.584,-0.241 0.584,-0.265L0.584,-0.727L0.643,-0.727L0.643,-0L0.569,-0L0.17,-0.612L0.145,-0.647C0.148,-0.574 0.149,-0.511 0.149,-0.458L0.149,-0L0.089,-0Z" style="fill:white;fill-rule:nonzero;"/>
                    </g>
                    <g transform="matrix(1250,0,0,1250,6546.55,1132.69)">
                        <path d="M0.289,0.012C0.215,0.012 0.156,-0.013 0.113,-0.063C0.069,-0.112 0.047,-0.179 0.047,-0.264C0.047,-0.345 0.069,-0.412 0.111,-0.464C0.154,-0.516 0.208,-0.543 0.276,-0.545C0.339,-0.545 0.389,-0.522 0.427,-0.478C0.465,-0.433 0.484,-0.372 0.484,-0.297C0.484,-0.294 0.484,-0.264 0.484,-0.26L0.111,-0.26C0.112,-0.192 0.129,-0.137 0.161,-0.097C0.194,-0.057 0.237,-0.037 0.29,-0.037C0.325,-0.037 0.355,-0.041 0.381,-0.049C0.407,-0.057 0.433,-0.069 0.461,-0.083L0.472,-0.038C0.418,-0.005 0.357,0.012 0.289,0.012ZM0.114,-0.309L0.418,-0.309C0.418,-0.369 0.406,-0.414 0.38,-0.446C0.354,-0.478 0.319,-0.494 0.274,-0.494C0.228,-0.494 0.192,-0.477 0.164,-0.443C0.136,-0.409 0.119,-0.364 0.114,-0.309Z" style="fill:white;fill-rule:nonzero;"/>
                    </g>
                    <g transform="matrix(1250,0,0,1250,7263.66,1132.69)">
                        <path d="M0.271,0.013C0.243,0.013 0.217,0.01 0.193,0.004C0.169,-0.003 0.147,-0.013 0.126,-0.026C0.106,-0.04 0.09,-0.059 0.078,-0.083C0.066,-0.108 0.06,-0.137 0.06,-0.171L0.06,-0.535L0.121,-0.535L0.121,-0.169C0.121,-0.144 0.125,-0.123 0.132,-0.105C0.14,-0.087 0.151,-0.074 0.166,-0.065C0.181,-0.056 0.196,-0.05 0.213,-0.046C0.229,-0.043 0.249,-0.041 0.271,-0.041C0.293,-0.041 0.312,-0.043 0.329,-0.047C0.345,-0.05 0.361,-0.057 0.375,-0.066C0.389,-0.075 0.4,-0.088 0.408,-0.106C0.416,-0.123 0.419,-0.144 0.419,-0.169L0.419,-0.535L0.48,-0.535L0.48,-0.171C0.48,-0.144 0.476,-0.119 0.468,-0.098C0.46,-0.076 0.45,-0.059 0.437,-0.045C0.424,-0.031 0.408,-0.02 0.39,-0.011C0.372,-0.002 0.353,0.004 0.333,0.008C0.314,0.011 0.293,0.013 0.271,0.013Z" style="fill:white;fill-rule:nonzero;"/>
                    </g>
                    <g transform="matrix(1250,0,0,1250,7988.71,1132.69)">
                        <path d="M0.073,-0C0.072,-0.314 0.072,-0.493 0.072,-0.535L0.122,-0.535L0.125,-0.43C0.145,-0.462 0.169,-0.488 0.199,-0.508C0.228,-0.528 0.259,-0.538 0.292,-0.538C0.305,-0.538 0.319,-0.537 0.334,-0.535L0.33,-0.484C0.318,-0.486 0.306,-0.487 0.293,-0.487C0.248,-0.487 0.21,-0.469 0.179,-0.434C0.148,-0.398 0.133,-0.356 0.133,-0.307L0.133,-0L0.073,-0Z" style="fill:white;fill-rule:nonzero;"/>
                    </g>
                    <g transform="matrix(1250,0,0,1250,8463.51,1132.69)">
                        <path d="M0.293,-0.037C0.333,-0.037 0.365,-0.047 0.392,-0.068C0.419,-0.088 0.439,-0.116 0.451,-0.149C0.463,-0.183 0.469,-0.222 0.469,-0.266C0.469,-0.335 0.455,-0.391 0.425,-0.433C0.396,-0.475 0.351,-0.496 0.292,-0.496C0.252,-0.496 0.219,-0.485 0.192,-0.464C0.164,-0.443 0.144,-0.416 0.131,-0.382C0.119,-0.348 0.112,-0.309 0.112,-0.265C0.112,-0.198 0.128,-0.143 0.159,-0.101C0.19,-0.058 0.235,-0.037 0.293,-0.037ZM0.289,0.012C0.241,0.012 0.198,-0 0.161,-0.025C0.124,-0.049 0.096,-0.082 0.076,-0.124C0.057,-0.166 0.047,-0.213 0.047,-0.266C0.047,-0.306 0.053,-0.343 0.064,-0.377C0.075,-0.411 0.091,-0.44 0.112,-0.465C0.133,-0.49 0.159,-0.51 0.19,-0.524C0.221,-0.538 0.255,-0.545 0.293,-0.545C0.343,-0.545 0.387,-0.533 0.423,-0.508C0.46,-0.483 0.488,-0.45 0.506,-0.409C0.524,-0.367 0.534,-0.32 0.534,-0.267C0.534,-0.214 0.524,-0.166 0.505,-0.125C0.486,-0.083 0.458,-0.05 0.421,-0.025C0.383,-0.001 0.34,0.012 0.289,0.012Z" style="fill:white;fill-rule:nonzero;"/>
                    </g>
                    <g transform="matrix(1250,0,0,1250,9239.83,1132.69)">
                        <path d="M0.295,0.012C0.243,0.012 0.198,-0.001 0.16,-0.026C0.122,-0.052 0.094,-0.085 0.075,-0.126C0.057,-0.167 0.047,-0.212 0.047,-0.262C0.047,-0.301 0.053,-0.337 0.064,-0.371C0.075,-0.404 0.091,-0.434 0.111,-0.46C0.131,-0.486 0.158,-0.507 0.19,-0.522C0.222,-0.537 0.257,-0.545 0.297,-0.545C0.323,-0.545 0.348,-0.542 0.374,-0.535C0.399,-0.528 0.418,-0.52 0.431,-0.51L0.412,-0.465C0.378,-0.484 0.338,-0.493 0.292,-0.493C0.237,-0.493 0.193,-0.472 0.16,-0.43C0.128,-0.388 0.111,-0.332 0.111,-0.262C0.111,-0.195 0.128,-0.142 0.16,-0.1C0.192,-0.059 0.236,-0.039 0.292,-0.039C0.332,-0.039 0.374,-0.048 0.418,-0.068L0.428,-0.024C0.412,-0.013 0.393,-0.004 0.368,0.002C0.344,0.009 0.319,0.012 0.295,0.012Z" style="fill:white;fill-rule:nonzero;"/>
                    </g>
                    <g transform="matrix(1250,0,0,1250,9878.82,1132.69)">
                        <path d="M0.048,0.254C0.034,0.254 0.02,0.253 0.006,0.25L0.002,0.2C0.003,0.2 0.008,0.2 0.016,0.201C0.025,0.201 0.031,0.202 0.036,0.202C0.077,0.202 0.107,0.195 0.128,0.181C0.148,0.167 0.167,0.139 0.183,0.099C0.185,0.093 0.19,0.079 0.198,0.057C0.206,0.034 0.213,0.016 0.217,0.003L0.003,-0.535L0.067,-0.535L0.249,-0.054C0.249,-0.054 0.256,-0.076 0.271,-0.121C0.361,-0.401 0.406,-0.54 0.409,-0.54C0.409,-0.54 0.409,-0.538 0.408,-0.535L0.472,-0.535C0.329,-0.134 0.255,0.075 0.248,0.094C0.226,0.148 0.199,0.188 0.169,0.214C0.139,0.241 0.098,0.254 0.048,0.254Z" style="fill:white;fill-rule:nonzero;"/>
                    </g>
                    <g transform="matrix(1250,0,0,1250,10527.6,1132.69)">
                        <path d="M0.223,0.011C0.178,0.011 0.145,0.001 0.124,-0.019C0.103,-0.04 0.093,-0.073 0.093,-0.119L0.093,-0.491L0.017,-0.491L0.021,-0.527L0.094,-0.534L0.11,-0.657L0.152,-0.66L0.152,-0.535L0.309,-0.535L0.309,-0.491L0.152,-0.491L0.152,-0.131C0.152,-0.094 0.159,-0.068 0.171,-0.055C0.183,-0.043 0.205,-0.036 0.236,-0.036C0.257,-0.036 0.282,-0.04 0.312,-0.047L0.314,-0C0.275,0.007 0.244,0.011 0.223,0.011Z" style="fill:white;fill-rule:nonzero;"/>
                    </g>
                    <g transform="matrix(1250,0,0,1250,10990.2,1132.69)">
                        <path d="M0.289,0.012C0.215,0.012 0.156,-0.013 0.113,-0.063C0.069,-0.112 0.047,-0.179 0.047,-0.264C0.047,-0.345 0.069,-0.412 0.111,-0.464C0.154,-0.516 0.208,-0.543 0.276,-0.545C0.339,-0.545 0.389,-0.522 0.427,-0.478C0.465,-0.433 0.484,-0.372 0.484,-0.297C0.484,-0.294 0.484,-0.264 0.484,-0.26L0.111,-0.26C0.112,-0.192 0.129,-0.137 0.161,-0.097C0.194,-0.057 0.237,-0.037 0.29,-0.037C0.325,-0.037 0.355,-0.041 0.381,-0.049C0.407,-0.057 0.433,-0.069 0.461,-0.083L0.472,-0.038C0.418,-0.005 0.357,0.012 0.289,0.012ZM0.114,-0.309L0.418,-0.309C0.418,-0.369 0.406,-0.414 0.38,-0.446C0.354,-0.478 0.319,-0.494 0.274,-0.494C0.228,-0.494 0.192,-0.477 0.164,-0.443C0.136,-0.409 0.119,-0.364 0.114,-0.309Z" style="fill:white;fill-rule:nonzero;"/>
                    </g>
                </g>
            </g>
        </g>
    </g>
</svg>
